<?xml version="1.0" standalone="no"?>
<!DOCTYPE svg PUBLIC "-//W3C//DTD SVG 20010904//EN"
 "http://www.w3.org/TR/2001/REC-SVG-20010904/DTD/svg10.dtd">
<svg version="1.0" xmlns="http://www.w3.org/2000/svg"
 width="4800.000000pt" height="2700.000000pt" viewBox="0 0 4800.000000 2700.000000"
 preserveAspectRatio="xMidYMid meet">
<metadata>
Created by potrace 1.12, written by Peter Selinger 2001-2015
</metadata>
<g transform="translate(0.000000,2700.000000) scale(0.100000,-0.100000)"
fill="#000000" stroke="none">
<path d="M0 13500 l0 -13500 24000 0 24000 0 0 13500 0 13500 -24000 0 -24000
0 0 -13500z m41140 -8899 l0 -969 -655 -7 c-765 -9 -2411 -3 -2422 9 -4 4 -9
439 -11 967 l-2 959 307 3 c170 1 865 3 1546 5 l1237 2 0 -969z m3757 859 c57
-26 83 -69 83 -141 0 -43 -5 -63 -22 -84 -55 -70 -192 -74 -252 -7 -40 45 -37
153 5 198 50 55 115 67 186 34z m-2643 -199 c44 -11 100 -33 125 -48 65 -38
140 -118 170 -183 24 -50 26 -66 25 -170 -1 -95 -5 -126 -24 -175 -45 -116
-171 -217 -313 -250 -49 -11 -273 -33 -359 -35 -5 0 -8 -58 -8 -128 0 -71 -3
-184 -7 -250 l-6 -122 -149 0 -148 0 0 689 c0 648 1 690 18 695 9 3 148 3 307
2 258 -3 299 -6 369 -25z m720 -353 c3 -24 7 -182 9 -353 4 -344 7 -362 68
-406 73 -52 215 -31 285 42 l29 30 6 302 c4 166 7 328 8 360 l1 57 145 0 145
0 0 -526 0 -526 -31 6 c-17 3 -66 6 -109 6 l-78 0 -12 51 c-7 28 -18 53 -26
56 -7 2 -39 -11 -71 -31 -113 -69 -302 -97 -419 -61 -105 32 -197 130 -214
227 -5 29 -10 220 -13 425 l-4 372 76 4 c42 1 104 4 138 5 l62 2 5 -42z m1095
25 c5 -10 14 -49 19 -87 6 -37 14 -71 17 -74 3 -3 31 22 63 55 91 96 122 108
277 108 l130 0 3 -29 c4 -36 -27 -204 -39 -212 -5 -3 -35 1 -67 7 -80 17 -181
0 -237 -38 -84 -58 -93 -106 -104 -510 l-6 -248 -137 -3 -138 -3 0 520 0 520
58 4 c139 8 151 8 161 -10z m890 1 c3 -3 7 -237 9 -520 l3 -514 -146 0 -145 0
0 520 0 519 78 4 c87 5 192 0 201 -9z m649 6 c100 -13 211 -46 219 -66 6 -16
-42 -180 -56 -188 -5 -3 -35 4 -67 15 -33 12 -97 23 -145 26 -103 7 -174 -17
-185 -61 -14 -56 6 -70 205 -141 165 -58 205 -79 250 -130 59 -67 73 -199 32
-292 -26 -58 -87 -120 -151 -153 -129 -66 -412 -67 -575 -2 -57 23 -56 16 -19
135 29 90 28 90 151 56 133 -37 288 -26 313 21 13 24 13 66 0 90 -9 18 -99 56
-220 95 -76 25 -163 69 -204 105 -46 41 -68 100 -69 185 -1 225 203 345 521
305z m609 4 c21 -6 32 -28 47 -96 4 -16 12 -28 18 -28 7 0 38 18 70 41 85 59
155 81 263 82 123 1 190 -21 261 -86 l55 -50 54 38 c114 78 252 112 378 95 82
-12 135 -38 186 -90 76 -78 74 -65 75 -530 l1 -415 -136 -3 -136 -3 -9 363
c-11 408 -12 416 -82 445 -69 29 -186 1 -259 -61 l-33 -28 0 -359 0 -359 -145
0 -145 0 0 318 c0 364 -6 423 -49 466 -61 61 -188 42 -281 -41 l-50 -45 0
-349 0 -349 -145 0 -145 0 0 520 0 519 58 4 c110 7 127 7 149 1z"/>
<path d="M38282 5368 c-9 -9 -12 -195 -12 -775 l0 -763 1330 0 1330 0 0 775 0
775 -1318 0 c-1012 0 -1321 -3 -1330 -12z"/>
<path d="M41870 4851 l0 -211 26 -6 c37 -9 169 2 229 20 146 44 194 231 85
330 -61 55 -101 68 -227 74 l-113 5 0 -212z"/>
</g>
</svg>
